# xmcd
#
# Track frame offsets:
#	150
#	12697
#	35722
#	52810
#	79945
#	95430
#	116025
#	134982
#	150127
#	194197
#
# Disc length: 2692 seconds
#
# Revision: 1
# Processed by: cddbd v1.5.1PL0 Copyright (c) Steve Scherf et al.
# Submitted via: CDex 1.50Beta5
#
DISCID=8c0a820a
DTITLE=小室等 - いま生きているということ
DYEAR=1990
DGENRE=Pop
TTITLE0=へえ そうかい
TTITLE1=古い絵
TTITLE2=たかをくくろうか
TTITLE3=モナ・リザ
TTITLE4=夏が終る
TTITLE5=お早うの朝
TTITLE6=高原
TTITLE7=立ちばなし
TTITLE8=いま生きているということ
TTITLE9=それから?
EXTD=
EXTT0=
EXTT1=
EXTT2=
EXTT3=
EXTT4=
EXTT5=
EXTT6=
EXTT7=
EXTT8=
EXTT9=
PLAYORDER=
